<svg id="Layer_1" data-name="Layer 1" xmlns="http://www.w3.org/2000/svg" viewBox="0 0 788.14 922.14"><defs><style>.cls-1{fill:#c6c6c6;}.cls-2{fill:#fff;}</style></defs><title>Logo</title><path class="cls-1" d="M344.15,469.76v-36h43.76V390h38.61v43.76h43.77v36H426.52v43.76H387.91V469.76Z"/><path class="cls-1" d="M497.28,469.76v-36H541V390h38.61v43.76h43.76v36H579.65v43.76H541V469.76Z"/><path class="cls-2" d="M359.38,547.94a69.21,69.21,0,0,1-133.72-25V399.23a68.49,68.49,0,0,1,1.64-15A69.19,69.19,0,0,1,356,366.84h.33a148.09,148.09,0,0,0-131.76-93.65,144.27,144.27,0,0,0-74,124.18c0,.62,0,1.24,0,1.86V522.91a144.13,144.13,0,0,0,124.75,143h0a148.16,148.16,0,0,0,84.85-117.94Z"/><path class="cls-1" d="M437,547.94A144.38,144.38,0,0,1,275.33,665.88a148.16,148.16,0,0,0,84.85-117.94Z"/><path class="cls-1" d="M435.51,366.84H356.33a148.09,148.09,0,0,0-131.76-93.65,144.38,144.38,0,0,1,210.94,93.65Z"/></svg>